<svg width="512" height="512" viewBox="0 0 512 512" xmlns="http://www.w3.org/2000/svg">
  <defs>
    <radialGradient id="bg" cx="50%" cy="50%" r="70%">
      <stop offset="0%" stop-color="#1a1a1a"/>
      <stop offset="100%" stop-color="#050505"/>
    </radialGradient>
    <linearGradient id="crown" x1="0" y1="0" x2="0" y2="1">
      <stop offset="0%" stop-color="#6a1828"/>
      <stop offset="100%" stop-color="#360a14"/>
    </linearGradient>
    <linearGradient id="goldAntique" x1="0" y1="0" x2="0" y2="1">
      <stop offset="0%" stop-color="#c9a064"/>
      <stop offset="100%" stop-color="#705020"/>
    </linearGradient>
    <linearGradient id="dustyRose" x1="0" y1="0" x2="0" y2="1">
      <stop offset="0%" stop-color="#c8959e"/>
      <stop offset="100%" stop-color="#9a6a72"/>
    </linearGradient>
    <filter id="innerShadow">
      <feGaussianBlur in="SourceAlpha" stdDeviation="2.5"/>
      <feOffset dx="0" dy="3" result="off"/>
      <feComposite in="SourceAlpha" in2="off" operator="arithmetic" k2="-1" k3="1" result="inner"/>
      <feFlood flood-color="#000" flood-opacity="0.65"/>
      <feComposite in2="inner" operator="in"/>
      <feComposite in2="SourceGraphic" operator="over"/>
    </filter>
    <filter id="grain" x="0" y="0" width="100%" height="100%">
      <feTurbulence type="fractalNoise" baseFrequency="1.2" numOctaves="2" result="noise"/>
      <feColorMatrix in="noise" type="matrix" values="0 0 0 0 0  0 0 0 0 0  0 0 0 0 0  0 0 0 0.04 0"/>
      <feComposite in2="SourceGraphic" operator="in"/>
    </filter>
  </defs>

  <rect width="512" height="512" fill="url(#bg)"/>
  <rect width="512" height="512" filter="url(#grain)" opacity="0.6"/>

  <path d="M143 235 L143 168 L194 204 L256 122 L318 204 L369 168 L369 235 Z" fill="url(#crown)" stroke="#a6858d" stroke-width="5" stroke-linejoin="round" filter="url(#innerShadow)"/>

  <rect x="143" y="240" width="226" height="30" rx="15" fill="url(#dustyRose)"/>
  <rect x="164" y="282" width="184" height="26" rx="13" fill="#7a6268" opacity="0.9"/>
  <rect x="184" y="318" width="144" height="23" rx="11.5" fill="#5a424a" opacity="0.82"/>

  <circle cx="256" cy="122" r="18" fill="url(#goldAntique)"/>
  <circle cx="143" cy="168" r="18" fill="url(#goldAntique)"/>
  <circle cx="369" cy="168" r="18" fill="url(#goldAntique)"/>
</svg>
