<svg width="512" height="512" viewBox="0 0 512 512" xmlns="http://www.w3.org/2000/svg">
  <defs>
    <radialGradient id="bg" cx="50%" cy="38%" r="75%">
      <stop offset="0%" stop-color="#2e2e2e"/>
      <stop offset="100%" stop-color="#121212"/>
    </radialGradient>
    <linearGradient id="crown" x1="0" y1="0" x2="0" y2="1">
      <stop offset="0%" stop-color="#9c2847"/>
      <stop offset="55%" stop-color="#7c1f36"/>
      <stop offset="100%" stop-color="#521022"/>
    </linearGradient>
    <linearGradient id="crownShine" x1="0" y1="0" x2="0" y2="1">
      <stop offset="0%" stop-color="#ffffff" stop-opacity="0.22"/>
      <stop offset="45%" stop-color="#ffffff" stop-opacity="0"/>
    </linearGradient>
    <linearGradient id="pinkStroke" x1="0" y1="0" x2="0" y2="1">
      <stop offset="0%" stop-color="#fadfe4"/>
      <stop offset="100%" stop-color="#cf94a0"/>
    </linearGradient>
    <radialGradient id="goldBead" cx="32%" cy="28%" r="80%">
      <stop offset="0%" stop-color="#f8dd94"/>
      <stop offset="45%" stop-color="#c9a064"/>
      <stop offset="100%" stop-color="#7a5418"/>
    </radialGradient>
    <linearGradient id="pinkBar" x1="0" y1="0" x2="0" y2="1">
      <stop offset="0%" stop-color="#fadee4"/>
      <stop offset="55%" stop-color="#f0c6cf"/>
      <stop offset="100%" stop-color="#d09ba6"/>
    </linearGradient>
    <linearGradient id="midBar" x1="0" y1="0" x2="0" y2="1">
      <stop offset="0%" stop-color="#b08c92"/>
      <stop offset="100%" stop-color="#8a6a70"/>
    </linearGradient>
    <linearGradient id="darkBar" x1="0" y1="0" x2="0" y2="1">
      <stop offset="0%" stop-color="#8e6e74"/>
      <stop offset="100%" stop-color="#604850"/>
    </linearGradient>
    <filter id="softShadow" x="-20%" y="-20%" width="140%" height="140%">
      <feGaussianBlur in="SourceAlpha" stdDeviation="3"/>
      <feOffset dx="0" dy="3" result="shadow"/>
      <feComponentTransfer><feFuncA type="linear" slope="0.55"/></feComponentTransfer>
      <feMerge><feMergeNode/><feMergeNode in="SourceGraphic"/></feMerge>
    </filter>
  </defs>

  <rect width="512" height="512" fill="url(#bg)"/>

  <g filter="url(#softShadow)">
    <path d="M143 235 L143 168 L194 204 L256 122 L318 204 L369 168 L369 235 Z" fill="url(#crown)" stroke="url(#pinkStroke)" stroke-width="5" stroke-linejoin="round"/>
    <path d="M143 235 L143 168 L194 204 L256 122 L318 204 L369 168 L369 235 Z" fill="url(#crownShine)" stroke="none"/>
  </g>

  <g filter="url(#softShadow)">
    <rect x="143" y="240" width="226" height="30" rx="15" fill="url(#pinkBar)"/>
  </g>
  <rect x="164" y="282" width="184" height="26" rx="13" fill="url(#midBar)" opacity="0.92"/>
  <rect x="184" y="318" width="144" height="23" rx="11.5" fill="url(#darkBar)" opacity="0.82"/>

  <g filter="url(#softShadow)">
    <circle cx="256" cy="122" r="18" fill="url(#goldBead)"/>
    <circle cx="143" cy="168" r="18" fill="url(#goldBead)"/>
    <circle cx="369" cy="168" r="18" fill="url(#goldBead)"/>
  </g>

  <circle cx="251" cy="116" r="5" fill="#fff" opacity="0.45"/>
  <circle cx="138" cy="162" r="5" fill="#fff" opacity="0.45"/>
  <circle cx="364" cy="162" r="5" fill="#fff" opacity="0.45"/>
</svg>
