<svg width="512" height="512" viewBox="0 0 512 512" xmlns="http://www.w3.org/2000/svg">
  <defs>
    <linearGradient id="bg" x1="0" y1="0" x2="0" y2="1">
      <stop offset="0%" stop-color="#2b2b2b"/>
      <stop offset="100%" stop-color="#161616"/>
    </linearGradient>
    <linearGradient id="crown" x1="0" y1="0" x2="0" y2="1">
      <stop offset="0%" stop-color="#932748"/>
      <stop offset="100%" stop-color="#551024"/>
    </linearGradient>
    <linearGradient id="gloss" x1="0" y1="0" x2="0" y2="1">
      <stop offset="0%" stop-color="#ffffff" stop-opacity="0.35"/>
      <stop offset="48%" stop-color="#ffffff" stop-opacity="0.08"/>
      <stop offset="50%" stop-color="#ffffff" stop-opacity="0"/>
    </linearGradient>
    <radialGradient id="gold" cx="28%" cy="22%" r="95%">
      <stop offset="0%" stop-color="#fff0b8"/>
      <stop offset="25%" stop-color="#f2cc7a"/>
      <stop offset="70%" stop-color="#b4833a"/>
      <stop offset="100%" stop-color="#5e3e0c"/>
    </radialGradient>
    <linearGradient id="pinkBar" x1="0" y1="0" x2="0" y2="1">
      <stop offset="0%" stop-color="#ffe3ea"/>
      <stop offset="55%" stop-color="#f0c6cf"/>
      <stop offset="100%" stop-color="#c1909b"/>
    </linearGradient>
    <linearGradient id="pinkGloss" x1="0" y1="0" x2="0" y2="1">
      <stop offset="0%" stop-color="#ffffff" stop-opacity="0.45"/>
      <stop offset="100%" stop-color="#ffffff" stop-opacity="0"/>
    </linearGradient>
  </defs>

  <rect width="512" height="512" fill="url(#bg)"/>

  <path d="M143 235 L143 168 L194 204 L256 122 L318 204 L369 168 L369 235 Z" fill="url(#crown)" stroke="#fadfe4" stroke-width="5" stroke-linejoin="round"/>
  <path d="M143 235 L143 168 L194 204 L256 122 L318 204 L369 168 L369 235 Z" fill="url(#gloss)" stroke="none"/>

  <rect x="143" y="240" width="226" height="30" rx="15" fill="url(#pinkBar)"/>
  <rect x="147" y="242" width="218" height="13" rx="6.5" fill="url(#pinkGloss)"/>

  <rect x="164" y="282" width="184" height="26" rx="13" fill="#9a7a80" opacity="0.92"/>
  <rect x="184" y="318" width="144" height="23" rx="11.5" fill="#7a5a60" opacity="0.78"/>

  <circle cx="256" cy="122" r="18" fill="url(#gold)"/>
  <circle cx="143" cy="168" r="18" fill="url(#gold)"/>
  <circle cx="369" cy="168" r="18" fill="url(#gold)"/>

  <ellipse cx="249" cy="115" rx="6.5" ry="4" fill="#ffffff" opacity="0.7"/>
  <ellipse cx="136" cy="161" rx="6.5" ry="4" fill="#ffffff" opacity="0.7"/>
  <ellipse cx="362" cy="161" rx="6.5" ry="4" fill="#ffffff" opacity="0.7"/>
</svg>
